<svg width="36" height="36" viewBox="0 0 36 36" fill="none" xmlns="http://www.w3.org/2000/svg">
<path fill-rule="evenodd" clip-rule="evenodd" d="M15.3324 5.57593C15.0996 5.47785 14.8824 5.35586 14.6891 5.20941C14.0111 4.69552 13.6261 3.88001 13.8837 2.737C14.2242 1.22493 16.2436 -0.0966648 18.4691 1.28877C18.6634 1.4097 18.807 1.55391 18.906 1.71161C22.2653 1.13142 22.788 4.23521 21.4587 5.10212C21.2966 5.20786 21.1069 5.28035 20.8914 5.30876C18.8095 5.58345 19.0986 7.72513 17.2809 7.35988C16.3146 7.16569 15.9349 5.82953 15.3324 5.57593Z" fill="#FF9EB1"/>
<path fill-rule="evenodd" clip-rule="evenodd" d="M18.0229 14.523C13.8431 11.9745 17.4726 8.22736 17.2808 7.35975C19.0986 7.725 18.8094 5.58332 20.8913 5.30863C21.1068 5.28022 21.2965 5.20773 21.4587 5.10199C20.803 6.41888 21.1357 7.19769 21.6393 7.91175C21.7579 8.07992 21.8775 8.24283 21.9936 8.40356C22.6301 9.28467 23.1621 10.0996 22.8487 11.3432C22.6562 12.1074 22.1388 12.7808 21.4319 13.312C21.2028 13.4843 20.9537 13.6416 20.6894 13.7822C19.8928 14.206 18.9589 14.4574 18.0229 14.523Z" fill="#FF5D7D"/>
<path fill-rule="evenodd" clip-rule="evenodd" d="M17.2808 7.3598C17.4726 8.22741 13.8431 11.9745 18.0229 14.5231C17.0651 14.5903 16.1051 14.4631 15.2879 14.1273C14.8762 13.9582 14.5262 13.7524 14.2341 13.5173C12.7041 12.2863 12.7623 10.2541 13.8645 8.49417C13.9057 8.42843 13.9471 8.36304 13.9885 8.29793C14.5706 7.38082 15.1332 6.50941 14.6891 5.20947C14.8825 5.356 15.0996 5.47791 15.3324 5.57599C15.9348 5.82953 16.3146 7.16568 17.2808 7.3598Z" fill="#FF5D7D"/>
<path fill-rule="evenodd" clip-rule="evenodd" d="M13.8645 8.49412C12.7622 10.2542 12.7041 12.2863 14.2341 13.5173C14.0348 13.6131 13.8164 13.6755 13.5862 13.6969C14.0393 14.2433 14.1415 14.9826 13.8927 15.6159C13.7996 15.8534 13.657 16.076 13.4651 16.2678C12.7613 16.9717 11.6454 17.0119 10.8942 16.3889C10.8382 16.9891 10.5049 17.5089 10.0234 17.8184C9.72565 18.01 9.37115 18.1212 8.99064 18.1212C7.99527 18.1212 7.17772 17.3606 7.08716 16.3889C6.33598 17.0119 5.22004 16.9716 4.51625 16.2678C3.81238 15.564 3.77217 14.4481 4.39517 13.6969C3.4235 13.6064 2.6629 12.7887 2.6629 11.7934C2.6629 10.7981 3.4235 9.98052 4.39517 9.88996C3.77217 9.13878 3.81245 8.02284 4.51625 7.31904C5.22004 6.61518 6.33598 6.57496 7.08716 7.19797C7.17772 6.2263 7.99534 5.4657 8.99071 5.4657C9.98607 5.4657 10.8036 6.2263 10.8942 7.19797C11.6454 6.57496 12.7613 6.61525 13.4652 7.31904C13.7431 7.59697 13.9175 7.93924 13.9885 8.29795C13.9883 8.29824 13.9881 8.29852 13.9879 8.2988C13.9468 8.36355 13.9055 8.42866 13.8645 8.49412ZM8.99071 10.2115C8.11705 10.2115 7.40876 10.9198 7.40876 11.7934C7.40876 12.6671 8.11705 13.3754 8.99071 13.3754C9.86436 13.3754 10.5727 12.6671 10.5727 11.7934C10.5727 10.9198 9.86436 10.2115 8.99071 10.2115Z" fill="#D1AEE5"/>
<path d="M8.9907 13.3754C9.86439 13.3754 10.5727 12.6671 10.5727 11.7934C10.5727 10.9198 9.86439 10.2115 8.9907 10.2115C8.11702 10.2115 7.40875 10.9198 7.40875 11.7934C7.40875 12.6671 8.11702 13.3754 8.9907 13.3754Z" fill="#FF9EB1"/>
<path fill-rule="evenodd" clip-rule="evenodd" d="M22.8488 11.3434C23.1621 10.0997 22.6301 9.28479 21.9936 8.40368C22.0493 8.00685 22.2296 7.62416 22.5349 7.31895C23.2386 6.61509 24.3546 6.57487 25.1058 7.19788C25.1963 6.22621 26.014 5.46561 27.0093 5.46561C28.0047 5.46561 28.8222 6.22621 28.9129 7.19788C29.664 6.57487 30.7799 6.61516 31.4838 7.31895C32.1876 8.02274 32.2279 9.13869 31.6048 9.88987C32.5765 9.98043 33.3371 10.798 33.3371 11.7933C33.3371 12.7886 32.5765 13.6063 31.6048 13.6968C32.2279 14.448 32.1876 15.5639 31.4838 16.2677C30.78 16.9716 29.664 17.0118 28.9129 16.3888C28.8223 17.3605 28.0047 18.1211 27.0094 18.1211C26.6289 18.1211 26.2744 18.0099 25.9766 17.8183C25.4952 17.5088 25.1618 16.989 25.1058 16.3888C24.3547 17.0118 23.2387 16.9715 22.5349 16.2677C21.8311 15.5639 21.7908 14.448 22.4139 13.6968C22.0465 13.6626 21.7094 13.5244 21.4321 13.3121C22.1388 12.781 22.6563 12.1076 22.8488 11.3434ZM27.0092 10.2115C26.1356 10.2115 25.4273 10.9198 25.4273 11.7934C25.4273 12.6671 26.1356 13.3754 27.0092 13.3754C27.8829 13.3754 28.5912 12.6671 28.5912 11.7934C28.5912 10.9198 27.8829 10.2115 27.0092 10.2115Z" fill="#D1AEE5"/>
<path d="M27.0093 13.3754C27.8829 13.3754 28.5912 12.6671 28.5912 11.7934C28.5912 10.9198 27.8829 10.2115 27.0093 10.2115C26.1356 10.2115 25.4273 10.9198 25.4273 11.7934C25.4273 12.6671 26.1356 13.3754 27.0093 13.3754Z" fill="#FF9EB1"/>
<path fill-rule="evenodd" clip-rule="evenodd" d="M22.4137 13.6969C21.7907 14.4481 21.831 15.564 22.5348 16.2678C23.2386 16.9717 24.3545 17.0119 25.1057 16.3889C25.1617 16.9891 25.495 17.5088 25.9765 17.8183C25.1883 19.7352 23.83 22.0325 22.6926 22.8667C21.6935 22.9789 20.6317 23.682 19.7683 24.5039C19.7648 24.5038 19.7613 24.5038 19.7577 24.5038H18.8148C16.6772 22.4419 14.5414 18.2435 13.8929 15.6159C14.1417 14.9826 14.0394 14.2433 13.5863 13.6969C13.8166 13.6755 14.0349 13.6131 14.2342 13.5173C14.5263 13.7523 14.8763 13.9581 15.2879 14.1273C16.1053 14.4631 17.0652 14.5902 18.0229 14.523C18.959 14.4574 19.8929 14.206 20.6895 13.7823C20.9539 13.6416 21.2029 13.4844 21.4321 13.3121C21.7093 13.5245 22.0464 13.6627 22.4137 13.6969Z" fill="white"/>
<path fill-rule="evenodd" clip-rule="evenodd" d="M13.8929 15.6159C14.5414 18.2435 16.6771 22.4418 18.8148 24.5038H16.2422C16.2387 24.5038 16.2352 24.5038 16.2317 24.5039C15.3682 23.682 14.3065 22.9789 13.3074 22.8666C12.17 22.0326 10.8116 19.7352 10.0236 17.8185C10.5049 17.5088 10.8383 16.9892 10.8942 16.3889C11.6454 17.0119 12.7613 16.9716 13.4651 16.2678C13.6571 16.0759 13.7996 15.8533 13.8929 15.6159Z" fill="white"/>
<path fill-rule="evenodd" clip-rule="evenodd" d="M19.7683 24.5039C20.6317 23.6819 21.6935 22.9789 22.6925 22.8666C23.3208 22.796 23.9242 22.959 24.4379 23.4728C25.2481 24.2831 25.2481 25.6088 24.4379 26.419C24.1131 26.7437 24.1469 27.2192 24.4379 27.5103C25.2481 28.3204 25.2481 29.6462 24.4379 30.4564C23.4388 31.4555 22.1009 31.1281 20.9009 30.3364C20.5023 30.0734 20.1189 29.7592 19.7682 29.4254C20.1501 29.4197 20.4607 29.1056 20.4607 28.7224V26.9647V25.2069C20.4609 24.8237 20.1502 24.5095 19.7683 24.5039Z" fill="#FF9EB1"/>
<path fill-rule="evenodd" clip-rule="evenodd" d="M18.8148 24.5038H19.7577C19.7612 24.5038 19.7647 24.5038 19.7683 24.5039C20.1502 24.5096 20.4608 24.8237 20.4608 25.2069V26.9646V28.7223C20.4608 29.1055 20.1502 29.4197 19.7683 29.4253C19.7647 29.4254 19.7612 29.4254 19.7577 29.4254H18H16.2423C16.2388 29.4254 16.2352 29.4254 16.2317 29.4253C15.8498 29.4197 15.5392 29.1055 15.5392 28.7223V26.9646V25.2069C15.5392 24.8236 15.8498 24.5096 16.2317 24.5039C16.2352 24.5038 16.2388 24.5038 16.2423 24.5038H18.8148Z" fill="#FF9EB1"/>
<path fill-rule="evenodd" clip-rule="evenodd" d="M15.5392 25.2069V26.9646V28.7223C15.5392 29.1055 15.8498 29.4197 16.2317 29.4253C15.881 29.7591 15.4976 30.0733 15.0991 30.3364C13.8991 31.128 12.5611 31.4555 11.5621 30.4564C10.7519 29.6462 10.7519 28.3204 11.5621 27.5102C11.8531 27.2192 11.8869 26.7438 11.5621 26.419C10.7519 25.6089 10.7519 24.2831 11.5621 23.4729C12.0758 22.9591 12.6793 22.7961 13.3074 22.8667C14.3065 22.9789 15.3683 23.682 16.2317 24.5039C15.8498 24.5096 15.5392 24.8237 15.5392 25.2069Z" fill="#FF9EB1"/>
<path fill-rule="evenodd" clip-rule="evenodd" d="M13.2249 35.2969C13.2249 33.6235 13.2737 32.1617 15.0991 30.3364C15.4977 30.0733 15.8811 29.7591 16.2318 29.4254C16.2353 29.4254 16.2388 29.4254 16.2423 29.4254H18H19.7577C19.7613 29.4254 19.7648 29.4254 19.7683 29.4253C20.119 29.7591 20.5024 30.0734 20.901 30.3364C22.7264 32.1617 22.7753 33.6235 22.7753 35.2969C21.6216 35.2969 21.5413 34.4086 20.3876 34.4086C19.2339 34.4086 19.1538 35.2969 18.0001 35.2969C16.8464 35.2969 16.7662 34.4086 15.6125 34.4086C14.4588 34.4086 14.3786 35.2969 13.2249 35.2969Z" fill="white"/>
<path d="M34.0401 11.7934C34.0401 10.781 33.4739 9.90126 32.6262 9.46682C32.9185 8.56005 32.6968 7.53776 31.9808 6.8218C31.2649 6.10592 30.2425 5.88416 29.3358 6.17651C28.9013 5.32872 28.0217 4.76252 27.0092 4.76252C25.9968 4.76252 25.1171 5.32865 24.6826 6.17644C23.7759 5.88416 22.7535 6.10592 22.0376 6.8218C21.9901 6.86933 21.9448 6.91848 21.9014 6.96889C21.7536 6.60462 21.7398 6.18438 22.0177 5.56454C22.294 5.33913 22.5141 5.03806 22.6589 4.67457C23.0046 3.80689 22.8384 2.76561 22.2353 2.02181C21.84 1.53436 20.935 0.784444 19.1905 0.962959C19.0867 0.863401 18.97 0.772492 18.8405 0.691918C17.6398 -0.0555368 16.3471 -0.202975 15.2003 0.276743C14.1902 0.6993 13.4228 1.5828 13.1976 2.58245C12.9202 3.81385 13.2473 4.89013 14.0789 5.62107C14.1979 6.07688 14.1513 6.45507 13.9908 6.85246C13.9811 6.8424 13.9722 6.83172 13.9623 6.8218C13.2464 6.10592 12.224 5.88416 11.3173 6.17644C10.8828 5.32858 10.0033 4.76245 8.99073 4.76245C7.97821 4.76245 7.09858 5.32858 6.66407 6.17637C5.75736 5.88409 4.73493 6.10578 4.01912 6.82173C3.30316 7.53769 3.08148 8.55991 3.37375 9.46675C2.52597 9.90126 1.95984 10.7809 1.95984 11.7933C1.95984 12.8058 2.52604 13.6855 3.37375 14.1199C3.08148 15.0267 3.30316 16.049 4.01912 16.7649C4.73507 17.4809 5.75751 17.7027 6.66407 17.4103C7.09858 18.258 7.97821 18.8242 8.99073 18.8242H8.9908C9.22092 18.8242 9.44359 18.7936 9.65628 18.7384C10.2417 20.0255 11.0312 21.4065 11.8541 22.4089C11.5721 22.5451 11.3075 22.733 11.0648 22.9756C10.5401 23.5003 10.2512 24.2 10.2512 24.9458C10.2512 25.6917 10.5401 26.3915 11.0648 26.916C11.0904 26.9416 11.0901 26.9565 11.0899 26.962C11.0896 26.9785 11.0802 26.9975 11.0648 27.013C10.5401 27.5376 10.2512 28.2373 10.2512 28.9832C10.2512 29.729 10.5401 30.4287 11.0648 30.9534C11.6224 31.511 12.2931 31.7858 13.034 31.7858C13.076 31.7858 13.1188 31.7831 13.1612 31.7813C12.5227 33.0645 12.5216 34.2288 12.5216 35.2967C12.5216 35.685 12.8365 35.9998 13.2247 35.9998C14.0284 35.9998 14.4913 35.6665 14.8293 35.4232C15.1085 35.2223 15.2621 35.1116 15.6123 35.1116C15.9624 35.1116 16.1162 35.2223 16.3954 35.4233C16.7334 35.6666 17.1963 35.9999 17.9999 35.9999C18.8035 35.9999 19.2665 35.6666 19.6044 35.4233C19.8836 35.2223 20.0373 35.1117 20.3875 35.1117C20.7376 35.1117 20.8914 35.2223 21.1706 35.4233C21.5086 35.6667 21.9715 35.9999 22.7751 35.9999C23.1633 35.9999 23.4782 35.6852 23.4782 35.2969C23.4782 34.2289 23.4772 33.0646 22.8386 31.7815C22.881 31.7832 22.9237 31.7859 22.9658 31.7859C23.7065 31.7859 24.3775 31.511 24.935 30.9535C26.0213 29.8671 26.0213 28.0995 24.935 27.0131C24.9196 26.9977 24.9102 26.9787 24.9099 26.9621C24.9097 26.9566 24.9094 26.9418 24.935 26.9162C26.0213 25.8298 26.0213 24.0621 24.935 22.9758C24.6924 22.7331 24.4278 22.5453 24.1458 22.4091C24.9687 21.4067 25.7582 20.0256 26.3435 18.7386C26.5563 18.7937 26.779 18.8244 27.0091 18.8244H27.0092C28.0215 18.8244 28.9012 18.2582 29.3357 17.4105C30.2422 17.7027 31.2648 17.481 31.9807 16.7651C32.6967 16.0491 32.9183 15.0269 32.6261 14.1201C33.4739 13.6856 34.0401 12.8059 34.0401 11.7934ZM22.4108 22.193C21.4971 22.3514 20.5005 22.8913 19.4928 23.8007H19.1054C18.6145 23.2953 18.1069 22.6561 17.5936 21.896C17.3762 21.5742 16.9389 21.4895 16.6174 21.707C16.2956 21.9243 16.211 22.3613 16.4283 22.6831C16.7001 23.0856 16.9722 23.4585 17.2431 23.8008H16.507C15.4992 22.8914 14.5027 22.3514 13.5889 22.193C12.7729 21.504 11.6726 19.809 10.8771 18.025C11.0515 17.8437 11.2008 17.6376 11.3173 17.4104C12.0892 17.6593 12.9445 17.5341 13.6237 17.0499C13.7556 17.2319 13.9681 17.3404 14.1925 17.3404C14.2664 17.3404 14.3416 17.3286 14.4156 17.3039C14.7838 17.1808 14.9825 16.7824 14.8594 16.4141C14.7694 16.1446 14.6917 15.8876 14.627 15.6464C14.7227 15.3198 14.7537 14.9784 14.718 14.6415C14.8164 14.689 14.9166 14.7349 15.0206 14.7776C15.7759 15.088 16.6425 15.2402 17.5278 15.2402C17.6868 15.2402 17.8464 15.235 18.006 15.2251C18.0114 15.2253 18.0168 15.2262 18.0221 15.2262C18.0607 15.2262 18.099 15.2218 18.1369 15.2156C19.1473 15.1367 20.1539 14.8635 21.0197 14.403C21.1402 14.339 21.2557 14.2713 21.3689 14.2021C21.1152 15.0881 21.3432 16.0705 22.0376 16.7649C22.7536 17.4808 23.7761 17.7025 24.6826 17.4103C24.7991 17.6375 24.9483 17.8436 25.1227 18.0248C24.3272 19.8091 23.227 21.5041 22.4108 22.193ZM16.2422 28.7223V25.2069H19.7576V28.7223H16.2422ZM15.4893 6.75058C15.731 7.0837 16.0323 7.487 16.4541 7.76317C16.3912 7.90266 16.3162 8.05797 16.2523 8.19001C15.6693 9.39631 14.588 11.6349 15.9859 13.6265C15.8374 13.5834 15.6933 13.5337 15.555 13.4769C15.2267 13.342 14.9425 13.1804 14.703 12.993C14.6949 12.9857 14.6863 12.9792 14.6779 12.9724C14.2911 12.6625 14.0239 12.2838 13.8811 11.8389C13.605 10.979 13.8161 9.89592 14.4603 8.86723C14.505 8.79587 14.5499 8.72507 14.5947 8.65448C14.9534 8.08961 15.3396 7.48046 15.4893 6.75058ZM21.3257 8.68014C22.0422 9.66749 22.405 10.2267 22.167 11.1716C22.0232 11.7426 21.6294 12.2806 21.0353 12.732C21.024 12.7397 21.0131 12.7481 21.0023 12.7565C20.8081 12.9012 20.5936 13.037 20.3594 13.1616C19.7143 13.5048 18.9579 13.719 18.1936 13.7985C16.0329 12.3681 16.6075 10.6868 17.5184 8.80198C17.6439 8.54226 17.7553 8.31116 17.8387 8.09826C18.7304 8.03133 19.2089 7.42737 19.5767 6.96207C19.8357 6.63429 20.058 6.35369 20.4032 6.17777C20.3183 7.07963 20.6684 7.75501 21.0648 8.31699C21.1517 8.44046 21.2393 8.5611 21.3257 8.68014ZM14.5694 2.89153C14.6942 2.33715 15.1549 1.82002 15.743 1.57401C16.0063 1.46384 16.2861 1.40928 16.5745 1.40928C17.0694 1.40928 17.5899 1.56979 18.0974 1.88569C18.516 2.14626 18.3806 2.52347 18.2628 2.72511C18.1047 2.99559 17.6925 3.37413 17.1507 3.07722C16.8102 2.89076 16.3829 3.01535 16.1963 3.35592C16.0097 3.69643 16.1344 4.12377 16.475 4.31037C17.6997 4.98154 18.9357 4.36022 19.4767 3.43481C19.6839 3.08045 19.7836 2.70634 19.7834 2.34467C20.3856 2.36175 20.856 2.55349 21.143 2.90742C21.4702 3.31093 21.4841 3.82432 21.3527 4.15407C21.2788 4.33919 21.123 4.56889 20.7993 4.61157C19.5073 4.78207 18.9097 5.5381 18.4734 6.0901C18.0451 6.63197 17.9124 6.76956 17.4192 6.67043C17.1245 6.61123 16.8558 6.24035 16.5961 5.8817C16.3212 5.50217 16.037 5.10971 15.6052 4.92789C15.4232 4.85125 15.2648 4.76175 15.1279 4.66079C15.1201 4.6546 15.1125 4.64848 15.1045 4.64265C14.5784 4.24139 14.3974 3.65516 14.5694 2.89153ZM8.99073 17.4181C8.36273 17.4181 7.8454 16.9476 7.78725 16.3236C7.763 16.0641 7.59714 15.8391 7.35626 15.7393C7.11524 15.6395 6.83907 15.6813 6.63834 15.8477C6.15602 16.2478 5.4575 16.2147 5.0135 15.7706C4.5695 15.3267 4.53631 14.6281 4.93637 14.1457C5.10279 13.945 5.14455 13.6686 5.04471 13.4277C4.94495 13.1869 4.72003 13.0209 4.46038 12.9968C3.83645 12.9387 3.36602 12.4213 3.36602 11.7933C3.36602 11.1654 3.83645 10.648 4.46038 10.5899C4.71996 10.5657 4.94495 10.3998 5.04471 10.1589C5.14455 9.91807 5.10279 9.64175 4.93637 9.44102C4.53631 8.95863 4.56943 8.26011 5.0135 7.81611C5.45743 7.37211 6.15609 7.33907 6.63834 7.73905C6.839 7.90554 7.11545 7.94717 7.35626 7.84747C7.59714 7.7477 7.763 7.52278 7.78725 7.26313C7.8454 6.63914 8.3628 6.1687 8.99073 6.1687C9.61866 6.1687 10.136 6.63921 10.1941 7.26313C10.2184 7.52271 10.3843 7.74763 10.6251 7.84747C10.866 7.94717 11.1423 7.90554 11.3431 7.73905C11.8254 7.33907 12.524 7.37211 12.968 7.81618C13.0779 7.92622 13.1643 8.05474 13.2243 8.19522C12.396 9.55577 12.1463 11.0359 12.5422 12.2689C12.657 12.6265 12.8226 12.9579 13.035 13.2606C12.9952 13.3109 12.9619 13.3669 12.9367 13.4279C12.8368 13.6688 12.8786 13.9451 13.045 14.1458C13.3391 14.5003 13.3982 14.9714 13.233 15.3726C13.2328 15.3733 13.2325 15.374 13.2323 15.3747C13.1727 15.5186 13.085 15.6537 12.9679 15.7708C12.524 16.2148 11.8254 16.2481 11.3431 15.8479C11.1424 15.6814 10.866 15.6397 10.6251 15.7394C10.3843 15.8392 10.2184 16.0641 10.1941 16.3238C10.1588 16.703 9.95319 17.0248 9.65684 17.2194C9.64418 17.2272 9.6316 17.235 9.61958 17.2435C9.43621 17.3543 9.22107 17.4181 8.99073 17.4181ZM12.0592 29.9593C11.8001 29.7002 11.6574 29.3536 11.6574 28.9834C11.6574 28.6131 11.8001 28.2665 12.0591 28.0075C12.3326 27.7341 12.4876 27.3737 12.4958 26.9925C12.5044 26.5923 12.3494 26.2121 12.0592 25.9219C11.8001 25.6628 11.6574 25.3163 11.6574 24.946C11.6574 24.5757 11.8001 24.2291 12.0592 23.9701C12.9291 23.1001 14.2245 23.7969 15.0677 24.4357C14.9217 24.6574 14.836 24.9222 14.836 25.207V26.2616H14.2389C13.8506 26.2616 13.5358 26.5764 13.5358 26.9647C13.5358 27.353 13.8506 27.6678 14.2389 27.6678H14.836V28.7224C14.836 29.0072 14.9216 29.272 15.0677 29.4936C14.2245 30.1324 12.9291 30.8292 12.0592 29.9593ZM22.0541 34.3267C22.034 34.3123 22.0134 34.2975 21.9921 34.2822C21.654 34.0388 21.1911 33.7055 20.3875 33.7055C19.584 33.7055 19.121 34.0388 18.783 34.2822C18.5038 34.4831 18.3501 34.5938 18 34.5938C17.6498 34.5938 17.4961 34.4831 17.2169 34.2821C16.8788 34.0387 16.4159 33.7055 15.6124 33.7055C14.8088 33.7055 14.3458 34.0387 14.0078 34.2821C13.9865 34.2974 13.9659 34.3122 13.9459 34.3265C14.0083 33.2232 14.2887 32.165 15.5394 30.8912C15.859 30.6755 16.1821 30.421 16.5063 30.1284H17.0997L16.7962 31.3439C16.7021 31.7207 16.9312 32.1024 17.3079 32.1964C17.3651 32.2107 17.4224 32.2175 17.4788 32.2175C17.7939 32.2175 18.0807 32.0041 18.1604 31.6846L18.549 30.1284H19.4935C19.8179 30.4211 20.1411 30.6758 20.4609 30.8916C21.7114 32.1654 21.9916 33.2234 22.0541 34.3267ZM23.9407 28.0074C24.4788 28.5455 24.4788 29.4211 23.9407 29.9592C23.0707 30.8293 21.7753 30.1324 20.9321 29.4935C21.0782 29.2718 21.1638 29.007 21.1638 28.7223V27.6676H21.761C22.1493 27.6676 22.4641 27.3529 22.4641 26.9645C22.4641 26.5762 22.1493 26.2614 21.761 26.2614H21.1638V25.2068C21.1638 24.9221 21.0782 24.6573 20.9321 24.4356C21.7753 23.7968 23.0707 23.0998 23.9408 23.9699C24.4789 24.5081 24.4789 25.3836 23.9408 25.9218C23.6506 26.212 23.4955 26.5922 23.5041 26.9924C23.5123 27.3736 23.6674 27.7341 23.9407 28.0074ZM31.5396 12.9969C31.28 13.0211 31.055 13.1869 30.9552 13.4278C30.8554 13.6687 30.8972 13.945 31.0636 14.1457C31.4636 14.6281 31.4305 15.3267 30.9865 15.7707C30.5425 16.2147 29.8439 16.2479 29.3616 15.8477C29.161 15.6814 28.8846 15.6396 28.6436 15.7393C28.4028 15.8391 28.2369 16.064 28.2126 16.3236C28.1545 16.9476 27.6371 17.4181 27.0092 17.4181C26.7789 17.4181 26.5637 17.3543 26.3804 17.2433C26.3684 17.2349 26.3558 17.2271 26.3431 17.2193C26.0468 17.0246 25.8412 16.7029 25.8058 16.3236C25.7816 16.0641 25.6157 15.8391 25.3748 15.7393C25.1339 15.6395 24.8576 15.6813 24.6569 15.8477C24.1747 16.2478 23.476 16.2147 23.032 15.7706C22.588 15.3267 22.5549 14.6281 22.9549 14.1457C23.1214 13.945 23.1631 13.6686 23.0633 13.4277C22.9958 13.2648 22.8703 13.1376 22.7164 13.0639C23.1128 12.5911 23.3912 12.0683 23.5306 11.5151C23.8839 10.1128 23.3492 9.11605 22.7515 8.25667C22.8111 8.09243 22.9054 7.94267 23.032 7.81611C23.4759 7.37211 24.1747 7.33899 24.6569 7.73898C24.8576 7.90547 25.134 7.9471 25.3748 7.8474C25.6157 7.74763 25.7816 7.52271 25.8058 7.26306C25.864 6.63907 26.3814 6.16863 27.0092 6.16863C27.6371 6.16863 28.1546 6.63914 28.2127 7.26313C28.237 7.52271 28.4028 7.74763 28.6438 7.8474C28.8849 7.94717 29.161 7.9054 29.3617 7.73898C29.8439 7.33892 30.5425 7.37204 30.9865 7.81611C31.4305 8.26004 31.4636 8.95863 31.0636 9.44102C30.8972 9.64168 30.8554 9.91807 30.9552 10.1589C31.055 10.3998 31.2799 10.5658 31.5396 10.5899C32.1635 10.648 32.6339 11.1654 32.6339 11.7933C32.6339 12.4213 32.1635 12.9387 31.5396 12.9969Z" fill="#404040"/>
<path d="M27.0092 9.50839C25.7492 9.50839 24.7242 10.5335 24.7242 11.7934C24.7242 13.0534 25.7492 14.0785 27.0092 14.0785C28.2692 14.0785 29.2943 13.0534 29.2943 11.7934C29.2943 10.5335 28.2692 9.50839 27.0092 9.50839ZM27.0092 12.6723C26.5246 12.6723 26.1304 12.2781 26.1304 11.7934C26.1304 11.3088 26.5246 10.9146 27.0092 10.9146C27.4939 10.9146 27.8881 11.3088 27.8881 11.7934C27.8881 12.2781 27.4939 12.6723 27.0092 12.6723Z" fill="#404040"/>
<path d="M11.2758 11.7934C11.2758 10.5335 10.2508 9.50839 8.99079 9.50839C7.73078 9.50839 6.70575 10.5335 6.70575 11.7934C6.70575 13.0534 7.73078 14.0785 8.99079 14.0785C10.2508 14.0785 11.2758 13.0534 11.2758 11.7934ZM8.11193 11.7934C8.11193 11.3088 8.50615 10.9146 8.99079 10.9146C9.47543 10.9146 9.86965 11.3088 9.86965 11.7934C9.86965 12.2781 9.47543 12.6723 8.99079 12.6723C8.50615 12.6723 8.11193 12.2781 8.11193 11.7934Z" fill="#404040"/>
<path d="M15.4218 18.8501C15.0335 18.8501 14.7187 19.1649 14.7187 19.5532C14.7187 19.9415 15.0335 20.2563 15.4218 20.2563H15.4223C15.8106 20.2563 16.1252 19.9415 16.1252 19.5532C16.1252 19.1649 15.8101 18.8501 15.4218 18.8501Z" fill="#404040"/>
</svg>
